<?xml version="1.0" encoding="utf-8"?>
<!-- Generator: Adobe Illustrator 24.3.0, SVG Export Plug-In . SVG Version: 6.00 Build 0)  -->
<svg version="1.1" id="Layer_4" xmlns="http://www.w3.org/2000/svg" xmlns:xlink="http://www.w3.org/1999/xlink" x="0px" y="0px"
	 viewBox="0 0 190.9 59.9" style="enable-background:new 0 0 190.9 59.9;" xml:space="preserve">
<style type="text/css">
	.st0{fill:#0093C7;}
</style>
<g>
	<path class="st0" d="M143.9,39c4.5,0,8.2,3.6,8.3,8.1c0.1,3.1-1.5,5.9-4.2,7.4l-0.7,0.4l-0.8-1.5l0.7-0.4c2.1-1.2,3.4-3.5,3.3-5.9
		c-0.1-3.6-3.1-6.5-6.6-6.5c0,0-0.1,0-0.1,0l-0.8,0l0-1.7l0.8,0C143.8,39,143.8,39,143.9,39"/>
	<polygon class="st0" points="139.7,45.8 145.6,47.6 145,49.2 140.2,47.7 138.9,49.1 146.8,56.4 145.7,57.6 136.5,49.1 	"/>
	<path class="st0" d="M137.1,35.4c2.8,3.5,2.3,8.7-1.1,11.5c-2.3,2-5.6,2.5-8.4,1.3l-0.8-0.3l0.6-1.6l0.8,0.3
		c2.3,0.9,4.8,0.5,6.7-1.1c2.8-2.3,3.2-6.4,0.9-9.2c0,0-0.1-0.1-0.1-0.1l-0.5-0.6l1.3-1.1l0.5,0.6C137,35.3,137.1,35.4,137.1,35.4"
		/>
	<polygon class="st0" points="129.2,36.4 131.4,42.1 129.8,42.7 128,38 126.1,37.8 125.3,48.6 123.7,48.4 124.6,36 	"/>
	<path class="st0" d="M135.7,27.9c-1,4.4-5.3,7.2-9.7,6.3c-3-0.6-5.4-2.8-6.3-5.7l-0.2-0.8l1.6-0.5l0.2,0.8c0.7,2.3,2.6,4.1,5,4.6
		c3.5,0.7,7-1.5,7.8-5c0,0,0-0.1,0-0.1l0.2-0.8l1.6,0.3l-0.2,0.8C135.7,27.8,135.7,27.8,135.7,27.9"/>
	<polygon class="st0" points="130,22.3 126.9,27.6 125.5,26.7 128,22.3 127,20.7 118.1,26.9 117.1,25.5 127.4,18.4 	"/>
	<path class="st0" d="M140.7,22.1c-4,2-8.9,0.3-11-3.7c-1.4-2.7-1.2-6,0.6-8.5l0.5-0.7l1.4,1l-0.5,0.7c-1.4,2-1.6,4.6-0.4,6.8
		c1.6,3.2,5.6,4.5,8.8,2.9c0,0,0.1,0,0.1-0.1l0.7-0.4l0.8,1.5l-0.7,0.4C140.8,22,140.7,22.1,140.7,22.1"/>
	<polygon class="st0" points="141.5,14.2 135.4,15 135.2,13.4 140.2,12.6 140.8,10.8 130.5,7.6 131,6.1 142.9,9.7 	"/>
	<path class="st0" d="M148.3,22.4c-4.1-1.9-5.8-6.8-4-10.9c1.3-2.8,3.9-4.6,7-4.9l0.8-0.1l0.1,1.7l-0.8,0.1
		c-2.4,0.2-4.6,1.7-5.6,3.9c-1.5,3.3-0.1,7.2,3.2,8.7c0,0,0.1,0,0.1,0.1l0.8,0.3l-0.7,1.5l-0.8-0.3
		C148.4,22.4,148.4,22.4,148.3,22.4"/>
	<polygon class="st0" points="155,18.1 150.5,13.8 151.8,12.7 155.5,16.1 157.3,15.4 153.3,5.4 154.8,4.8 159.4,16.4 	"/>
	<path class="st0" d="M152.9,28.5c-1-4.4,1.7-8.8,6-9.9c3-0.8,6.1,0.2,8.2,2.4l0.6,0.6l-1.2,1.1l-0.6-0.6c-1.7-1.8-4.1-2.5-6.5-1.9
		c-3.5,0.9-5.6,4.4-4.8,7.9c0,0,0,0.1,0,0.1l0.2,0.8l-1.6,0.4l-0.2-0.8C152.9,28.6,152.9,28.6,152.9,28.5"/>
	<polygon class="st0" points="160.4,31.1 160.9,24.9 162.6,25.1 162.2,30.2 163.9,31.2 169.2,21.8 170.7,22.6 164.4,33.5 	"/>
	<path class="st0" d="M150.9,35.9c2.8-3.5,7.9-4.2,11.5-1.5c2.4,1.8,3.7,4.9,3.2,7.9l-0.1,0.8l-1.7-0.3l0.1-0.8
		c0.4-2.4-0.6-4.8-2.5-6.3c-2.9-2.2-7-1.7-9.2,1.2c0,0-0.1,0.1-0.1,0.1l-0.5,0.7l-1.3-1l0.5-0.7C150.8,36,150.9,36,150.9,35.9"/>
	<polygon class="st0" points="153.6,43.4 158.7,40 159.6,41.4 155.4,44.3 155.7,46.1 166.4,44.5 166.6,46.1 154.3,48 	"/>
	<rect x="41.9" y="30.8" transform="matrix(0.7071 -0.7071 0.7071 0.7071 -10.1194 40.0429)" width="2.8" height="2.8"/>
	<path d="M26.3,49.3c-3.5,0-6.1-2.8-6.1-6.7c0-3.9,2.6-6.8,6.1-6.8c1.9,0,3.6,0.8,4.4,2.2v-1.9h2.6V49h-2.6v-1.9
		C29.9,48.5,28.2,49.3,26.3,49.3 M26.9,38.2c-1.2,0-2.2,0.4-2.9,1.2c-0.7,0.8-1.1,1.9-1.1,3.2c0,1.3,0.4,2.3,1.1,3.2
		c0.8,0.8,1.7,1.2,2.9,1.2c1.2,0,2.1-0.4,2.9-1.2c0.7-0.8,1.1-1.9,1.1-3.2C30.8,40,29.2,38.2,26.9,38.2"/>
	<rect x="36.4" y="30.6" width="2.6" height="18.4"/>
	<path d="M40.6,54.3c-0.5,0-1-0.1-1.5-0.2l-0.1,0v-2.3l0.1,0c0.4,0.1,0.8,0.1,1.1,0.1c1.2,0,1.8-0.6,1.8-1.8v-14h2.6v14.3
		C44.5,53,43.2,54.3,40.6,54.3"/>
	<path d="M53.4,49.3c-3.9,0-6.6-2.8-6.6-6.7c0-3.9,2.7-6.8,6.4-6.8c3.6,0,6.1,2.6,6.1,6.3c0,0.4,0,0.8-0.1,1.1l0,0.1h-9.9
		c0.3,2.3,1.8,3.6,4.1,3.6c1.5,0,2.8-0.6,3.8-1.8l0.1-0.1l1.7,1.5L59,46.7C57.7,48.4,55.7,49.3,53.4,49.3 M56.7,41.4
		c-0.2-2-1.5-3.2-3.5-3.2c-2,0-3.4,1.2-3.8,3.2H56.7z"/>
	<path d="M66.2,54.3c-2.2,0-4.1-0.7-5.3-1.9l-0.1-0.1l1.4-1.8l0.1,0.1c1,0.9,2.4,1.4,3.8,1.4c2.6,0,3.9-1.4,3.9-4.3v-0.8
		c-0.8,1.3-2.4,2.1-4.2,2.1c-2.9,0-4.5-1.8-4.5-5v-7.8h2.6v7.3c0,2.2,0.8,3.1,2.6,3.1c2.1,0,3.6-1.3,3.6-3.2v-7.2h2.6v11.5
		C72.5,51.9,70.3,54.3,66.2,54.3"/>
	<path d="M80.8,49.3c-3.5,0-6.1-2.8-6.1-6.7c0-3.9,2.6-6.8,6.1-6.8c1.9,0,3.6,0.8,4.4,2.2v-1.9h2.6V49h-2.6v-1.9
		C84.4,48.5,82.7,49.3,80.8,49.3 M81.3,38.2c-1.2,0-2.2,0.4-2.9,1.2c-0.7,0.8-1.1,1.9-1.1,3.2c0,1.3,0.4,2.3,1.1,3.2
		c0.8,0.8,1.7,1.2,2.9,1.2c1.2,0,2.1-0.4,2.9-1.2c0.7-0.8,1.1-1.9,1.1-3.2C85.3,40,83.7,38.2,81.3,38.2"/>
	<path d="M96,49.3c-3.5,0-6-2.8-6-6.7c0-3.9,2.5-6.8,6-6.8c1.9,0,3.6,0.9,4.5,2.2v-7.5h2.6V49h-2.6v-1.9
		C99.6,48.5,97.9,49.3,96,49.3 M96.6,38.2c-1.2,0-2.2,0.4-2.9,1.2c-0.7,0.8-1.1,1.9-1.1,3.2c0,1.3,0.4,2.3,1.1,3.2
		c0.8,0.8,1.7,1.2,2.9,1.2c1.2,0,2.1-0.4,2.9-1.2c0.7-0.8,1.1-1.9,1.1-3.2C100.6,40,99,38.2,96.6,38.2"/>
	<rect x="82.4" y="27.8" transform="matrix(0.7071 -0.7071 0.7071 0.7071 3.9221 67.7775)" width="2.8" height="2.8"/>
	<rect x="67.6" y="27.8" transform="matrix(0.7071 -0.7071 0.7071 0.7071 -0.4171 57.3019)" width="2.8" height="2.8"/>
	<rect x="71.9" y="27.8" transform="matrix(0.7071 -0.7071 0.7071 0.7071 0.8686 60.4057)" width="2.8" height="2.8"/>
	<path d="M94.4,22.3h-3.7v-3c0-3.6-3-6.8-6.4-6.8h-5.6v2.6h5.6c2,0,3.8,2.1,3.8,4.3v3H72.4l0-10h-2.6l0,10h-6.1V6.5h-2.6v18.4h9.7
		h1.5h16.7h1.6H97V6.5h-2.6V22.3z"/>
	<rect x="100.4" y="6.5" width="2.6" height="18.5"/>
	<path d="M51.9,12.6h-5.6v2.6h5.6c2.1,0,3.8,1.7,3.8,3.8v3.4H45v2.6h13.2v-6C58.2,15.5,55.4,12.6,51.9,12.6"/>
</g>
</svg>
